<?xml version="1.0" encoding="UTF-8"?>
<svg xmlns="http://www.w3.org/2000/svg" xmlns:xlink="http://www.w3.org/1999/xlink" width="190px" height="46px" viewBox="0 0 190 46" version="1.1">
<g id="surface1">
<path style=" stroke:none;fill-rule:nonzero;fill:rgb(99.607843%,99.607843%,99.607843%);fill-opacity:1;" d="M 124.152344 46.300781 C 82.769531 46.300781 41.554688 46.300781 0.34375 46.300781 C 0.34375 30.96875 0.34375 15.636719 0.34375 0.300781 C 63.675781 0.300781 127.007812 0.300781 190.34375 0.300781 C 190.34375 15.636719 190.34375 30.96875 190.34375 46.300781 C 168.335938 46.300781 146.328125 46.300781 124.152344 46.300781 M 29.035156 26.410156 C 29.886719 24.355469 30.738281 22.300781 31.625 20.164062 C 23.59375 20.164062 15.765625 20.164062 7.5625 20.164062 C 13.464844 25.679688 19.128906 30.96875 24.933594 36.390625 C 26.308594 33.03125 27.617188 29.828125 29.035156 26.410156 M 37.382812 14.675781 C 41.5625 11.140625 45.738281 7.605469 50.21875 3.8125 C 44.316406 3.644531 38.828125 3.488281 33.332031 3.332031 C 33.332031 8.265625 33.332031 13.042969 33.332031 17.824219 C 33.503906 17.945312 33.679688 18.0625 33.851562 18.183594 C 34.96875 17.058594 36.082031 15.9375 37.382812 14.675781 M 17.144531 18.042969 C 16.933594 18.296875 16.726562 18.546875 16.441406 18.894531 C 21.703125 18.894531 26.757812 18.894531 31.804688 18.894531 C 31.804688 14.027344 31.804688 9.25 31.804688 4.339844 C 26.875 8.945312 22.09375 13.414062 17.144531 18.042969 M 104.167969 25.4375 C 104.414062 21.347656 102.183594 18.410156 97.789062 17.996094 C 93.855469 17.625 89.835938 17.917969 85.867188 17.917969 C 85.867188 21.066406 85.867188 24.222656 85.867188 27.390625 C 86.738281 27.390625 87.5 27.390625 88.460938 27.390625 C 88.460938 24.804688 88.460938 22.3125 88.460938 19.875 C 91.386719 19.875 94.136719 19.679688 96.839844 19.925781 C 99.890625 20.203125 101.566406 22.210938 101.421875 24.832031 C 101.285156 27.382812 99.460938 29.050781 96.390625 29.246094 C 94.511719 29.367188 92.621094 29.292969 90.734375 29.296875 C 89.101562 29.304688 87.464844 29.300781 85.8125 29.300781 C 85.8125 30.054688 85.8125 30.597656 85.8125 31.175781 C 86.082031 31.214844 86.304688 31.273438 86.523438 31.273438 C 89.894531 31.265625 93.269531 31.328125 96.636719 31.210938 C 100.671875 31.066406 103.148438 29.167969 104.167969 25.4375 M 174.828125 17.757812 C 173.984375 17.667969 173.117188 17.433594 172.296875 17.523438 C 170.179688 17.757812 168.015625 17.945312 166.003906 18.515625 C 164.382812 18.976562 163.566406 20.300781 163.734375 21.890625 C 163.902344 23.476562 165.074219 24.292969 166.730469 24.578125 C 168.179688 24.824219 169.652344 24.960938 171.121094 25.132812 C 172.921875 25.347656 174.75 25.457031 176.515625 25.808594 C 177.070312 25.921875 177.824219 26.65625 177.839844 27.121094 C 177.859375 27.691406 177.335938 28.429688 176.792969 28.820312 C 176.210938 29.238281 175.355469 29.457031 174.585938 29.546875 C 171.589844 29.894531 168.675781 29.625 165.945312 28.367188 C 165.519531 28.171875 165.066406 28.023438 164.546875 27.816406 C 164.195312 28.53125 163.914062 29.105469 163.621094 29.703125 C 167.128906 31.570312 170.769531 31.976562 174.507812 31.542969 C 176.039062 31.367188 177.601562 30.863281 178.949219 30.195312 C 180.464844 29.449219 180.941406 28.03125 180.667969 26.523438 C 180.410156 25.074219 179.316406 24.152344 177.769531 23.863281 C 175.664062 23.46875 173.507812 23.289062 171.375 23.015625 C 170.136719 22.855469 168.875 22.773438 167.683594 22.476562 C 167.195312 22.355469 166.566406 21.777344 166.53125 21.371094 C 166.496094 20.960938 167.011719 20.355469 167.472656 20.109375 C 168.078125 19.78125 168.886719 19.535156 169.574219 19.585938 C 172.472656 19.796875 175.359375 20.128906 178.535156 20.445312 C 178.609375 20.324219 178.921875 19.800781 179.386719 19.027344 C 177.886719 18.59375 176.5 18.199219 174.828125 17.757812 M 12.261719 9.902344 C 10.890625 8.144531 9.175781 7.191406 6.652344 8.03125 C 6.652344 11.625 6.652344 15.21875 6.652344 18.9375 C 10.929688 18.921875 15.523438 20.097656 17.882812 15.367188 C 16.171875 13.695312 14.300781 11.875 12.261719 9.902344 M 26.308594 36.324219 C 25.570312 38.050781 24.828125 39.777344 24.054688 41.589844 C 26.695312 42.851562 29.210938 44.058594 31.882812 45.339844 C 31.882812 37.828125 31.882812 30.589844 31.882812 23.355469 C 31.808594 23.335938 31.730469 23.320312 31.652344 23.300781 C 29.898438 27.566406 28.140625 31.832031 26.308594 36.324219 M 131.203125 25.289062 C 134.085938 25.289062 136.972656 25.289062 139.820312 25.289062 C 139.820312 24.480469 139.820312 23.902344 139.820312 23.207031 C 136.191406 23.207031 132.671875 23.207031 129.085938 23.207031 C 129.085938 22.007812 129.085938 20.933594 129.085938 19.671875 C 132.75 19.671875 136.308594 19.671875 139.828125 19.671875 C 139.828125 18.9375 139.828125 18.398438 139.828125 17.828125 C 135.371094 17.828125 130.996094 17.828125 126.632812 17.828125 C 126.632812 21.101562 126.632812 24.292969 126.632812 27.414062 C 127.488281 27.414062 128.203125 27.414062 128.914062 27.414062 C 128.972656 26.667969 129.023438 26.027344 129.078125 25.289062 C 129.742188 25.289062 130.304688 25.289062 131.203125 25.289062 M 72.886719 24.199219 C 74.957031 26.140625 77.171875 27.980469 79.050781 30.058594 C 80.390625 31.539062 81.867188 31.382812 83.535156 31.136719 C 83.535156 26.65625 83.535156 22.25 83.535156 17.84375 C 82.660156 17.84375 81.890625 17.84375 80.945312 17.84375 C 80.945312 21.429688 80.945312 24.910156 80.945312 28.714844 C 77.441406 25.425781 74.199219 22.390625 70.882812 19.285156 C 70.082031 21.457031 71.167969 22.824219 72.886719 24.199219 M 110.414062 23.785156 C 110.011719 24.019531 109.609375 24.253906 108.96875 24.625 C 108.96875 22.199219 108.96875 20.019531 108.96875 17.835938 C 108.027344 17.835938 107.253906 17.835938 106.445312 17.835938 C 106.445312 22.335938 106.445312 26.742188 106.445312 31.152344 C 107.339844 31.152344 108.144531 31.152344 109.015625 31.152344 C 109.015625 30.316406 109.113281 29.601562 108.996094 28.914062 C 108.769531 27.597656 109.386719 26.78125 110.605469 26.070312 C 112.503906 24.960938 114.304688 23.726562 116.132812 22.527344 C 118.410156 21.027344 120.667969 19.507812 123.101562 17.886719 C 120.828125 17.5 119.1875 17.886719 117.605469 19.058594 C 115.386719 20.703125 112.957031 22.128906 110.414062 23.785156 M 160.203125 18.945312 C 160.515625 18.621094 160.832031 18.296875 161.257812 17.859375 C 159.425781 17.605469 158.046875 17.675781 156.882812 19.042969 C 155.589844 20.566406 153.96875 21.871094 152.53125 23.300781 C 151.824219 24.003906 150.757812 24.726562 150.636719 25.53125 C 150.351562 27.386719 150.542969 29.300781 150.542969 31.1875 C 151.480469 31.1875 152.199219 31.1875 153.019531 31.1875 C 153.019531 29.945312 153.097656 28.785156 153 27.636719 C 152.894531 26.441406 153.324219 25.566406 154.289062 24.695312 C 156.28125 22.898438 158.125 20.972656 160.203125 18.945312 M 64.003906 28.574219 C 64.003906 25.015625 64.003906 21.453125 64.003906 17.8125 C 63.078125 17.8125 62.308594 17.8125 61.507812 17.8125 C 61.507812 22.324219 61.507812 26.769531 61.507812 31.234375 C 62.375 31.234375 63.132812 31.234375 64.003906 31.234375 C 64.003906 30.367188 64.003906 29.617188 64.003906 28.574219 M 67.070312 31.257812 C 67.5625 31.234375 68.058594 31.210938 68.589844 31.183594 C 68.589844 26.6875 68.589844 22.292969 68.589844 17.832031 C 67.777344 17.832031 67.066406 17.832031 66.1875 17.832031 C 66.1875 22.1875 66.179688 26.496094 66.207031 30.804688 C 66.210938 30.953125 66.550781 31.101562 67.070312 31.257812 M 131.871094 29.304688 C 130.117188 29.304688 128.367188 29.304688 126.621094 29.304688 C 126.621094 30.046875 126.621094 30.617188 126.621094 31.136719 C 131.109375 31.136719 135.46875 31.136719 139.804688 31.136719 C 139.804688 30.480469 139.804688 29.949219 139.804688 29.304688 C 137.210938 29.304688 134.710938 29.304688 131.871094 29.304688 M 118.015625 25.242188 C 117.558594 24.820312 117.101562 24.394531 116.601562 23.929688 C 115.910156 24.398438 115.335938 24.789062 114.714844 25.214844 C 116.355469 26.828125 118.007812 28.292969 119.4375 29.90625 C 120.667969 31.296875 122.125 31.53125 124.089844 31.140625 C 122.054688 29.164062 120.117188 27.28125 118.015625 25.242188 M 148.789062 21.117188 C 148.054688 20.410156 147.191406 19.78125 146.621094 18.984375 C 145.550781 17.492188 144.058594 17.644531 142.21875 17.855469 C 144.414062 19.988281 146.460938 21.980469 148.589844 24.054688 C 149.160156 23.46875 149.625 23 150.097656 22.519531 C 149.671875 22.054688 149.316406 21.664062 148.789062 21.117188 M 1.777344 11.5 C 2.941406 11.601562 4.109375 11.699219 5.289062 11.796875 C 5.289062 10.601562 5.289062 9.695312 5.289062 8.519531 C 3.988281 9.558594 2.917969 10.417969 1.777344 11.5 M 46.128906 8.808594 C 45.964844 9.0625 45.804688 9.3125 45.644531 9.5625 C 45.730469 9.628906 45.816406 9.691406 45.902344 9.757812 C 47.710938 8.808594 49.523438 7.863281 51.355469 6.902344 C 49.902344 5.886719 48.851562 6.273438 47.882812 7.289062 C 47.410156 7.785156 46.835938 8.203125 46.128906 8.808594 Z M 46.128906 8.808594 "/>
<path style=" stroke:none;fill-rule:nonzero;fill:rgb(9.019608%,32.156863%,39.607843%);fill-opacity:1;" d="M 28.980469 26.519531 C 27.617188 29.828125 26.308594 33.03125 24.933594 36.390625 C 19.128906 30.96875 13.464844 25.679688 7.5625 20.164062 C 15.765625 20.164062 23.59375 20.164062 31.625 20.164062 C 30.738281 22.300781 29.886719 24.355469 28.980469 26.519531 Z M 28.980469 26.519531 "/>
<path style=" stroke:none;fill-rule:nonzero;fill:rgb(7.45098%,31.372549%,38.823529%);fill-opacity:1;" d="M 37.289062 14.746094 C 36.082031 15.9375 34.96875 17.058594 33.851562 18.183594 C 33.679688 18.0625 33.503906 17.945312 33.332031 17.824219 C 33.332031 13.042969 33.332031 8.265625 33.332031 3.332031 C 38.828125 3.488281 44.316406 3.644531 50.21875 3.8125 C 45.738281 7.605469 41.5625 11.140625 37.289062 14.746094 Z M 37.289062 14.746094 "/>
<path style=" stroke:none;fill-rule:nonzero;fill:rgb(8.235294%,31.764706%,39.215686%);fill-opacity:1;" d="M 17.230469 17.960938 C 22.09375 13.414062 26.875 8.945312 31.804688 4.339844 C 31.804688 9.25 31.804688 14.027344 31.804688 18.894531 C 26.757812 18.894531 21.703125 18.894531 16.441406 18.894531 C 16.726562 18.546875 16.933594 18.296875 17.230469 17.960938 Z M 17.230469 17.960938 "/>
<path style=" stroke:none;fill-rule:nonzero;fill:rgb(17.254902%,32.54902%,42.352941%);fill-opacity:1;" d="M 104.152344 25.566406 C 103.148438 29.167969 100.671875 31.066406 96.636719 31.210938 C 93.269531 31.328125 89.894531 31.265625 86.523438 31.273438 C 86.304688 31.273438 86.082031 31.214844 85.8125 31.175781 C 85.8125 30.597656 85.8125 30.054688 85.8125 29.300781 C 87.464844 29.300781 89.101562 29.304688 90.734375 29.296875 C 92.621094 29.292969 94.511719 29.367188 96.390625 29.246094 C 99.460938 29.050781 101.285156 27.382812 101.421875 24.832031 C 101.566406 22.210938 99.890625 20.203125 96.839844 19.925781 C 94.136719 19.679688 91.386719 19.875 88.460938 19.875 C 88.460938 22.3125 88.460938 24.804688 88.460938 27.390625 C 87.5 27.390625 86.738281 27.390625 85.867188 27.390625 C 85.867188 24.222656 85.867188 21.066406 85.867188 17.917969 C 89.835938 17.917969 93.855469 17.625 97.789062 17.996094 C 102.183594 18.410156 104.414062 21.347656 104.152344 25.566406 Z M 104.152344 25.566406 "/>
<path style=" stroke:none;fill-rule:nonzero;fill:rgb(18.039216%,33.333333%,43.137255%);fill-opacity:1;" d="M 174.972656 17.78125 C 176.5 18.199219 177.886719 18.59375 179.386719 19.027344 C 178.921875 19.800781 178.609375 20.324219 178.535156 20.445312 C 175.359375 20.128906 172.472656 19.796875 169.574219 19.585938 C 168.886719 19.535156 168.078125 19.78125 167.472656 20.109375 C 167.011719 20.355469 166.496094 20.960938 166.53125 21.371094 C 166.566406 21.777344 167.195312 22.355469 167.683594 22.476562 C 168.875 22.773438 170.136719 22.855469 171.375 23.015625 C 173.507812 23.289062 175.664062 23.46875 177.769531 23.863281 C 179.316406 24.152344 180.410156 25.074219 180.667969 26.523438 C 180.941406 28.03125 180.464844 29.449219 178.949219 30.195312 C 177.601562 30.863281 176.039062 31.367188 174.507812 31.542969 C 170.769531 31.976562 167.128906 31.570312 163.621094 29.703125 C 163.914062 29.105469 164.195312 28.53125 164.546875 27.816406 C 165.066406 28.023438 165.519531 28.171875 165.945312 28.367188 C 168.675781 29.625 171.589844 29.894531 174.585938 29.546875 C 175.355469 29.457031 176.210938 29.238281 176.792969 28.820312 C 177.335938 28.429688 177.859375 27.691406 177.839844 27.121094 C 177.824219 26.65625 177.070312 25.921875 176.515625 25.808594 C 174.75 25.457031 172.921875 25.347656 171.121094 25.132812 C 169.652344 24.960938 168.179688 24.824219 166.730469 24.578125 C 165.074219 24.292969 163.902344 23.476562 163.734375 21.890625 C 163.566406 20.300781 164.382812 18.976562 166.003906 18.515625 C 168.015625 17.945312 170.179688 17.757812 172.296875 17.523438 C 173.117188 17.433594 173.984375 17.667969 174.972656 17.78125 Z M 174.972656 17.78125 "/>
<path style=" stroke:none;fill-rule:nonzero;fill:rgb(9.019608%,32.156863%,40%);fill-opacity:1;" d="M 12.347656 9.980469 C 14.300781 11.875 16.171875 13.695312 17.882812 15.367188 C 15.523438 20.097656 10.929688 18.921875 6.652344 18.9375 C 6.652344 15.21875 6.652344 11.625 6.652344 8.03125 C 9.175781 7.191406 10.890625 8.144531 12.347656 9.980469 Z M 12.347656 9.980469 "/>
<path style=" stroke:none;fill-rule:nonzero;fill:rgb(8.235294%,31.764706%,39.215686%);fill-opacity:1;" d="M 26.347656 36.210938 C 28.140625 31.832031 29.898438 27.566406 31.652344 23.300781 C 31.730469 23.320312 31.808594 23.335938 31.882812 23.355469 C 31.882812 30.589844 31.882812 37.828125 31.882812 45.339844 C 29.210938 44.058594 26.695312 42.851562 24.054688 41.589844 C 24.828125 39.777344 25.570312 38.050781 26.347656 36.210938 Z M 26.347656 36.210938 "/>
<path style=" stroke:none;fill-rule:nonzero;fill:rgb(16.470588%,32.156863%,41.960784%);fill-opacity:1;" d="M 131.035156 25.289062 C 130.304688 25.289062 129.742188 25.289062 129.078125 25.289062 C 129.023438 26.027344 128.972656 26.667969 128.914062 27.414062 C 128.203125 27.414062 127.488281 27.414062 126.632812 27.414062 C 126.632812 24.292969 126.632812 21.101562 126.632812 17.828125 C 130.996094 17.828125 135.371094 17.828125 139.828125 17.828125 C 139.828125 18.398438 139.828125 18.9375 139.828125 19.671875 C 136.308594 19.671875 132.75 19.671875 129.085938 19.671875 C 129.085938 20.933594 129.085938 22.007812 129.085938 23.207031 C 132.671875 23.207031 136.191406 23.207031 139.820312 23.207031 C 139.820312 23.902344 139.820312 24.480469 139.820312 25.289062 C 136.972656 25.289062 134.085938 25.289062 131.035156 25.289062 Z M 131.035156 25.289062 "/>
<path style=" stroke:none;fill-rule:nonzero;fill:rgb(19.607843%,34.509804%,44.313725%);fill-opacity:1;" d="M 72.804688 24.117188 C 71.167969 22.824219 70.082031 21.457031 70.882812 19.285156 C 74.199219 22.390625 77.441406 25.425781 80.945312 28.714844 C 80.945312 24.910156 80.945312 21.429688 80.945312 17.84375 C 81.890625 17.84375 82.660156 17.84375 83.535156 17.84375 C 83.535156 22.25 83.535156 26.65625 83.535156 31.136719 C 81.867188 31.382812 80.390625 31.539062 79.050781 30.058594 C 77.171875 27.980469 74.957031 26.140625 72.804688 24.117188 Z M 72.804688 24.117188 "/>
<path style=" stroke:none;fill-rule:nonzero;fill:rgb(18.431373%,33.72549%,43.529412%);fill-opacity:1;" d="M 110.515625 23.714844 C 112.957031 22.128906 115.386719 20.703125 117.605469 19.058594 C 119.1875 17.886719 120.828125 17.5 123.101562 17.886719 C 120.667969 19.507812 118.410156 21.027344 116.132812 22.527344 C 114.304688 23.726562 112.503906 24.960938 110.605469 26.070312 C 109.386719 26.78125 108.769531 27.597656 108.996094 28.914062 C 109.113281 29.601562 109.015625 30.316406 109.015625 31.152344 C 108.144531 31.152344 107.339844 31.152344 106.445312 31.152344 C 106.445312 26.742188 106.445312 22.335938 106.445312 17.835938 C 107.253906 17.835938 108.027344 17.835938 108.96875 17.835938 C 108.96875 20.019531 108.96875 22.199219 108.96875 24.625 C 109.609375 24.253906 110.011719 24.019531 110.515625 23.714844 Z M 110.515625 23.714844 "/>
<path style=" stroke:none;fill-rule:nonzero;fill:rgb(15.686275%,31.372549%,41.568627%);fill-opacity:1;" d="M 160.117188 19.023438 C 158.125 20.972656 156.28125 22.898438 154.289062 24.695312 C 153.324219 25.566406 152.894531 26.441406 153 27.636719 C 153.097656 28.785156 153.019531 29.945312 153.019531 31.1875 C 152.199219 31.1875 151.480469 31.1875 150.542969 31.1875 C 150.542969 29.300781 150.351562 27.386719 150.636719 25.53125 C 150.757812 24.726562 151.824219 24.003906 152.53125 23.300781 C 153.96875 21.871094 155.589844 20.566406 156.882812 19.042969 C 158.046875 17.675781 159.425781 17.605469 161.257812 17.859375 C 160.832031 18.296875 160.515625 18.621094 160.117188 19.023438 Z M 160.117188 19.023438 "/>
<path style=" stroke:none;fill-rule:nonzero;fill:rgb(21.568627%,36.078431%,45.490196%);fill-opacity:1;" d="M 64.003906 28.722656 C 64.003906 29.617188 64.003906 30.367188 64.003906 31.234375 C 63.132812 31.234375 62.375 31.234375 61.507812 31.234375 C 61.507812 26.769531 61.507812 22.324219 61.507812 17.8125 C 62.308594 17.8125 63.078125 17.8125 64.003906 17.8125 C 64.003906 21.453125 64.003906 25.015625 64.003906 28.722656 Z M 64.003906 28.722656 "/>
<path style=" stroke:none;fill-rule:nonzero;fill:rgb(14.117647%,30.196078%,40.392157%);fill-opacity:1;" d="M 66.902344 31.253906 C 66.550781 31.101562 66.210938 30.953125 66.207031 30.804688 C 66.179688 26.496094 66.1875 22.1875 66.1875 17.832031 C 67.066406 17.832031 67.777344 17.832031 68.589844 17.832031 C 68.589844 22.292969 68.589844 26.6875 68.589844 31.183594 C 68.058594 31.210938 67.5625 31.234375 66.902344 31.253906 Z M 66.902344 31.253906 "/>
<path style=" stroke:none;fill-rule:nonzero;fill:rgb(14.509804%,30.588235%,40.392157%);fill-opacity:1;" d="M 132.039062 29.304688 C 134.710938 29.304688 137.210938 29.304688 139.804688 29.304688 C 139.804688 29.949219 139.804688 30.480469 139.804688 31.136719 C 135.46875 31.136719 131.109375 31.136719 126.621094 31.136719 C 126.621094 30.617188 126.621094 30.046875 126.621094 29.304688 C 128.367188 29.304688 130.117188 29.304688 132.039062 29.304688 Z M 132.039062 29.304688 "/>
<path style=" stroke:none;fill-rule:nonzero;fill:rgb(19.215686%,34.509804%,43.921569%);fill-opacity:1;" d="M 118.097656 25.320312 C 120.117188 27.28125 122.054688 29.164062 124.089844 31.140625 C 122.125 31.53125 120.667969 31.296875 119.4375 29.90625 C 118.007812 28.292969 116.355469 26.828125 114.714844 25.214844 C 115.335938 24.789062 115.910156 24.398438 116.601562 23.929688 C 117.101562 24.394531 117.558594 24.820312 118.097656 25.320312 Z M 118.097656 25.320312 "/>
<path style=" stroke:none;fill-rule:nonzero;fill:rgb(18.823529%,34.117647%,43.529412%);fill-opacity:1;" d="M 148.875 21.195312 C 149.316406 21.664062 149.671875 22.054688 150.097656 22.519531 C 149.625 23 149.160156 23.46875 148.589844 24.054688 C 146.460938 21.980469 144.414062 19.988281 142.21875 17.855469 C 144.058594 17.644531 145.550781 17.492188 146.621094 18.984375 C 147.191406 19.78125 148.054688 20.410156 148.875 21.195312 Z M 148.875 21.195312 "/>
<path style=" stroke:none;fill-rule:nonzero;fill:rgb(18.039216%,38.823529%,45.882353%);fill-opacity:1;" d="M 1.8125 11.390625 C 2.917969 10.417969 3.988281 9.558594 5.289062 8.519531 C 5.289062 9.695312 5.289062 10.601562 5.289062 11.796875 C 4.109375 11.699219 2.941406 11.601562 1.8125 11.390625 Z M 1.8125 11.390625 "/>
<path style=" stroke:none;fill-rule:nonzero;fill:rgb(15.686275%,37.254902%,44.313725%);fill-opacity:1;" d="M 46.21875 8.734375 C 46.835938 8.203125 47.410156 7.785156 47.882812 7.289062 C 48.851562 6.273438 49.902344 5.886719 51.355469 6.902344 C 49.523438 7.863281 47.710938 8.808594 45.902344 9.757812 C 45.816406 9.691406 45.730469 9.628906 45.644531 9.5625 C 45.804688 9.3125 45.964844 9.0625 46.21875 8.734375 Z M 46.21875 8.734375 "/>
</g>
</svg>
